<?xml version="1.0" encoding="utf-8"?>
<!-- Generator: Adobe Illustrator 16.0.0, SVG Export Plug-In . SVG Version: 6.00 Build 0)  -->
<!DOCTYPE svg PUBLIC "-//W3C//DTD SVG 1.1//EN" "http://www.w3.org/Graphics/SVG/1.1/DTD/svg11.dtd">
<svg version="1.1" id="Layer_1" xmlns="http://www.w3.org/2000/svg" xmlns:xlink="http://www.w3.org/1999/xlink" x="0px" y="0px"
	 width="400px" height="193.108px" viewBox="-121 -17.555 400 193.108" enable-background="new -121 -17.555 400 193.108"
	 xml:space="preserve">
<path fill="#F0C087" d="M257.14,10.039H154.86V3.136c0-11.427-9.261-20.691-20.688-20.691H89.468
	c-15.337,0-30.236,5.113-42.343,14.527L20.074,18.013c-4.842,3.767-10.801,5.812-16.937,5.812h-41.379v144.834h24.793
	c10.254,0,20.49,0.848,30.604,2.531l10.988,1.832c10.123,1.687,20.367,2.531,30.629,2.531h66.16
	c11.201,0,21.244-8.389,21.833-19.575c0.623-11.932-8.866-21.801-20.661-21.801h12.621c11.204,0,21.247-8.392,21.833-19.578
	c0.625-11.935-8.866-21.804-20.661-21.804h13.795c11.202,0,21.242-8.389,21.831-19.576c0.625-11.933-8.866-21.802-20.659-21.802
	h103.446c11.793,0,21.284-9.867,20.659-21.798C278.385,18.43,268.342,10.039,257.14,10.039z"/>
<rect x="-38.242" y="23.828" fill="#E6AF78" width="13.793" height="144.828"/>
<path fill="#A0D2F0" d="M-45.138,175.549h-68.965c-3.809,0-6.896-3.09-6.896-6.897V23.825c0-3.809,3.088-6.896,6.896-6.896h68.966
	c3.808,0,6.896,3.088,6.896,6.896v144.827C-38.242,172.461-41.33,175.549-45.138,175.549z"/>
</svg>
